<svg width="24" height="24" viewBox="0 0 24 24" fill="none" xmlns="http://www.w3.org/2000/svg">
<path fill-rule="evenodd" clip-rule="evenodd" d="M11.0295 2.58963C11.5893 2.11465 12.4107 2.11465 12.9705 2.58963L20.4705 8.95327C20.8064 9.23827 21 9.65652 21 10.097V19.4998C21 20.3282 20.3284 20.9998 19.5 20.9998H13.75C13.3358 20.9998 13 20.664 13 20.2498V13.9998H11V20.2498C11 20.664 10.6642 20.9998 10.25 20.9998H4.5C3.67157 20.9998 3 20.3282 3 19.4998V10.097C3 9.65652 3.19364 9.23827 3.52953 8.95327L11.0295 2.58963ZM12 3.7334L4.5 10.097L4.5 19.4998H9.5V13.2498C9.5 12.8356 9.83579 12.4998 10.25 12.4998H13.75C14.1642 12.4998 14.5 12.8356 14.5 13.2498V19.4998H19.5V10.097L12 3.7334Z" fill="#24292E"/>
</svg>
